<?xml version="1.0" encoding="UTF-8" standalone="no"?>
<!DOCTYPE svg PUBLIC "-//W3C//DTD SVG 1.1//EN" "http://www.w3.org/Graphics/SVG/1.1/DTD/svg11.dtd">
<svg width="100%" height="100%" viewBox="0 0 120 60" version="1.1" xmlns="http://www.w3.org/2000/svg" xmlns:xlink="http://www.w3.org/1999/xlink" xml:space="preserve" xmlns:serif="http://www.serif.com/" style="fill-rule:evenodd;clip-rule:evenodd;stroke-linejoin:round;stroke-miterlimit:2;">
    <g transform="matrix(1.08137,0,0,1.08137,-80.4537,42.3397)">
        <g id="g881">
            <g id="g874">
                <path id="path6-8" d="M98.854,-17.889L94.01,-17.889L94.01,-12.447L97.234,-9.544L97.234,-14.825L98.956,-14.825C100.05,-14.825 100.59,-14.3 100.59,-13.454L100.59,-9.412C100.59,-8.566 100.079,-7.997 98.956,-7.997L93.996,-7.997L93.996,-4.919L98.839,-4.919C101.436,-4.904 103.873,-6.203 103.873,-9.179L103.873,-13.527C103.887,-16.561 101.451,-17.889 98.854,-17.889ZM124.239,-9.179L124.239,-13.643C124.239,-15.248 127.128,-15.613 128.003,-14.008L130.673,-15.088C129.623,-17.393 127.712,-18.064 126.121,-18.064C123.525,-18.064 120.957,-16.561 120.957,-13.643L120.957,-9.179C120.957,-6.232 123.525,-4.758 126.063,-4.758C127.697,-4.758 129.652,-5.561 130.732,-7.662L127.872,-8.975C127.172,-7.18 124.239,-7.618 124.239,-9.179ZM115.413,-13.031C114.406,-13.249 113.735,-13.614 113.691,-14.242C113.75,-15.744 116.069,-15.803 117.426,-14.358L119.571,-16.007C118.229,-17.641 116.711,-18.079 115.15,-18.079C112.772,-18.079 110.467,-16.736 110.467,-14.198C110.467,-11.732 112.364,-10.405 114.45,-10.084C115.515,-9.938 116.697,-9.515 116.667,-8.785C116.58,-7.399 113.72,-7.472 112.422,-9.048L110.35,-7.107C111.561,-5.546 113.21,-4.758 114.756,-4.758C117.134,-4.758 119.775,-6.13 119.877,-8.639C120.023,-11.805 117.718,-12.608 115.413,-13.031ZM105.638,-4.933L108.906,-4.933L108.906,-17.889L105.638,-17.889L105.638,-4.933ZM160.742,-17.889L155.898,-17.889L155.898,-12.447L159.123,-9.544L159.123,-14.825L160.844,-14.825C161.938,-14.825 162.478,-14.3 162.478,-13.454L162.478,-9.412C162.478,-8.566 161.968,-7.997 160.844,-7.997L155.884,-7.997L155.884,-4.919L160.742,-4.919C163.339,-4.904 165.775,-6.203 165.775,-9.179L165.775,-13.527C165.775,-16.561 163.339,-17.889 160.742,-17.889ZM136.976,-18.064C134.292,-18.064 131.622,-16.605 131.622,-13.614L131.622,-9.194C131.622,-6.232 134.306,-4.744 137.005,-4.744C139.69,-4.744 142.359,-6.232 142.359,-9.194L142.359,-13.614C142.359,-16.59 139.66,-18.064 136.976,-18.064ZM139.077,-9.194C139.077,-8.26 138.026,-7.778 136.991,-7.778C135.94,-7.778 134.89,-8.231 134.89,-9.194L134.89,-13.614C134.89,-14.562 135.911,-15.073 136.932,-15.073C137.997,-15.073 139.077,-14.621 139.077,-13.614L139.077,-9.194ZM154.089,-13.614C154.016,-16.649 151.945,-17.874 149.275,-17.874L144.096,-17.874L144.096,-4.919L147.407,-4.919L147.407,-9.033L147.991,-9.033L150.996,-4.919L155.081,-4.919L151.551,-9.369C153.112,-9.865 154.089,-11.222 154.089,-13.614ZM149.333,-11.863L147.407,-11.863L147.407,-14.825L149.333,-14.825C151.39,-14.825 151.39,-11.863 149.333,-11.863Z" style="fill:rgb(114,137,218);fill-rule:nonzero;"/>
            </g>
        </g>
    </g>
</svg>
